<?xml version="1.0" encoding="utf-8"?>
<!-- Generator: Adobe Illustrator 21.0.0, SVG Export Plug-In . SVG Version: 6.00 Build 0)  -->
<svg version="1.1" id="Layer_1" xmlns="http://www.w3.org/2000/svg" xmlns:xlink="http://www.w3.org/1999/xlink" x="0px" y="0px"
	 viewBox="0 0 407 402" style="enable-background:new 0 0 407 402;" xml:space="preserve">
<path d="M131.6,0.1c69.8,0,126.5,56.5,126.5,126.5c0,14.8-3,29.6-7.4,44.6L407,328v74h-74.5v-44.6h-44.6v-44.6h-44.6l-67.1-67.3
	c-13.3,4.4-28.1,7.4-44.4,7.4C62,255.8,3,201.6,0.1,131.8S51.4,3,121.2,0.1C124.7,0,128.1,0,131.6,0.1z M94.3,134
	c25.4,0,44.6-19.2,44.6-44.4c0-25.4-19.2-44.8-44.4-44.8c-25.4,0-44.8,19.5-44.8,44.6C49.7,114.7,69.2,134,94.3,134z"/>
</svg>
