<?xml version="1.0" encoding="utf-8"?>
<!-- Generator: Adobe Illustrator 21.0.0, SVG Export Plug-In . SVG Version: 6.00 Build 0)  -->
<svg version="1.1" id="Layer_1" xmlns="http://www.w3.org/2000/svg" xmlns:xlink="http://www.w3.org/1999/xlink" x="0px" y="0px"
	 viewBox="0 0 13.4 13.3" style="enable-background:new 0 0 13.4 13.3;" xml:space="preserve">
<g>
	<path d="M7.7,13.3v-0.7c1.2-0.2,1.3-0.4,1-1.3C8.4,10.7,8.1,9.9,7.8,9H4c-0.2,0.6-0.5,1.3-0.7,2.1c-0.3,1-0.2,1.2,1.2,1.4v0.7H0
		l0-0.7c1.3-0.2,1.6-0.4,2.2-2.1L6.3,0.3l1-0.3c1.3,3.5,2.5,7,3.8,10.4c0.7,1.8,0.9,2,2.2,2.2v0.7H7.7z M6,3.7L6,3.7
		C5.3,5.1,4.8,6.6,4.3,8h3.1L6,3.7z"/>
</g>
</svg>
