<?xml version="1.0" encoding="utf-8"?>
<!-- Generator: Adobe Illustrator 21.0.0, SVG Export Plug-In . SVG Version: 6.00 Build 0)  -->
<svg version="1.1" id="Layer_1" xmlns="http://www.w3.org/2000/svg" xmlns:xlink="http://www.w3.org/1999/xlink" x="0px" y="0px"
	 viewBox="0 0 289.1 289" style="enable-background:new 0 0 289.1 289;" xml:space="preserve">
<path d="M281.9,247.9l-62.7-62.9l-1.1-0.9c36.1-54.8,20.9-128.5-34-164.6S55.7-1.3,19.6,53.5s-20.9,128.5,34,164.6
	c39.6,26.1,91,26.1,130.6,0l0.9,1.1l62.9,62.9c9.5,9.4,24.9,9.2,34.2-0.3c9.3-9.4,9.2-24.6-0.1-34L281.9,247.9z M119,196.6
	c-42.9,0-77.7-34.8-77.7-77.7c0-42.9,34.8-77.7,77.7-77.7c0,0,0,0,0,0c42.9,0,77.7,34.8,77.7,77.7
	C196.6,161.9,161.9,196.6,119,196.6z"/>
</svg>
