<?xml version="1.0" encoding="utf-8"?>
<!-- Generator: Adobe Illustrator 21.0.0, SVG Export Plug-In . SVG Version: 6.00 Build 0)  -->
<svg version="1.1" id="Layer_1" xmlns="http://www.w3.org/2000/svg" xmlns:xlink="http://www.w3.org/1999/xlink" x="0px" y="0px"
	 viewBox="0 0 471.7 444" style="enable-background:new 0 0 471.7 444;" xml:space="preserve">
<path d="M28.9,190.6c2-3.2,5.4-5.1,9.2-5c4.4,0,7.8,1.4,9.7,3.9c2.2,2.5,3.3,5.8,3.3,10c0,3.1-1.1,6.7-3.1,10.5
	c-2.2,4.2-6.1,8.6-10.5,13.9L1.4,260.8v15.8h76.9v-17.8H36.6l-0.3-1.1l15-16.1c9.7-10.5,16.6-18.3,20.3-23.9
	c3.6-5.3,5.6-11.4,5.6-18.3c0-10.3-3.6-18.6-10.5-24.4c-8.1-6.4-18.3-9.5-28.6-8.9c-11.4,0-20.5,3.6-27.7,10.5
	c-6.9,6.9-10.3,15.5-10,25.8h25.3c-0.1-4.3,1.1-8.5,3.3-12.2V190.6z M26.1,90.7h-25V111h77.4V90.7h-25V0L1.4,7.8v18.3h25L26.1,90.7z
	 M61.3,386c5.3-2.2,9.4-5.5,12.5-9.7c3.1-4,4.7-8.9,4.7-13.9c0.3-9-3.8-17.6-11.1-23c-6.9-5.5-16.7-8.3-28.6-8.3
	c-10.5,0-19.4,2.8-26.6,8.3c-7,4.9-11,13.1-10.5,21.6v0.8h25.3c0-4.4,1.4-5.8,3.9-7.8c2.8-1.9,5.6-3.1,8.9-3.1
	c4.2,0,7.5,1.1,9.7,3.3c2.2,2.5,3.3,5.3,3.3,8.6c0,4.4-1.1,8.3-3.6,10.5c-2.9,2.7-6.8,4.1-10.8,3.9H26.4v18h11.9
	c5.3,0,9.2,1.4,11.9,3.9c2.8,2.5,4.4,6.4,4.4,11.7c0,3.9-1.4,7.2-4.2,9.7c-3,2.7-7,4.1-11.1,3.9c-3.7-0.1-7.3-1.6-10-4.2
	c-2.9-2.3-4.4-5.8-4.2-9.4h-25L0,412.1c0,10.3,3.6,18.3,11.1,23.6c8.3,5.6,17.2,8.3,27.8,8.3c11.9,0,22.2-2.8,29.7-8.3
	c7.7-5.5,12.1-14.4,11.7-23.9c0.2-5.7-1.6-11.3-5-15.8C71.6,391.4,66.8,387.9,61.3,386z M471.7,416.2V333h-333v83.2H471.7z
	 M471.7,249.7v-55.5h-333v55.5H471.7z M471.7,111V27.7h-333V111H471.7z"/>
</svg>
