<?xml version="1.0" encoding="utf-8"?>
<!-- Generator: Adobe Illustrator 21.0.0, SVG Export Plug-In . SVG Version: 6.00 Build 0)  -->
<svg version="1.1" id="Layer_1" xmlns="http://www.w3.org/2000/svg" xmlns:xlink="http://www.w3.org/1999/xlink" x="0px" y="0px"
	 viewBox="0 0 347 347" style="enable-background:new 0 0 347 347;" xml:space="preserve">
<path d="M173.6,183.9c42.9,0,77.8-41.3,77.8-92c0-70.3-34.9-91.9-77.8-91.9S95.8,21.6,95.8,91.9C95.8,142.6,130.7,183.9,173.6,183.9
	z M345.4,319.1l-39.3-89.1c-1.8-4.2-4.9-7.5-8.9-9.5l-60.8-32.1c-1.3-0.7-3-0.6-4.2,0.4c-34.6,26.5-82.7,26.5-117.2,0
	c-1.2-0.9-2.9-1.1-4.2-0.4l-60.8,32.1c-4,1.8-7.1,5.5-8.9,9.5L1.7,319.2c-4.4,9.9,0,21.6,10,26c2.5,1.1,5.3,1.7,8.1,1.7h307.6
	c6.8,0,13-3.3,16.6-9.1c3.5-5.5,4-12.6,1.5-18.6V319.1z"/>
</svg>
