<svg xmlns="http://www.w3.org/2000/svg" width="308.34" height="264.47" viewBox="0 0 308.34 264.47"><title>save</title><path d="M166,81.38V31.13H64.28V97.24h167V31.13H213.47V81.38Zm142.31-35V264.47H0V0H253.08Zm-57.87,94h-199v93h199ZM77.09,167.43c0-3.05,2.85-5.49,6.4-5.49h45.07c3.47-.58,6.83,1.36,7.51,4.34s-1.59,5.86-5.06,6.44a7.45,7.45,0,0,1-2.45,0H83.49C80,172.72,77.21,170.38,77.09,167.43Zm0,21.56c0-3.05,2.85-5.49,6.4-5.49h64.28c3.47-.58,6.83,1.36,7.51,4.34s-1.59,5.86-5.06,6.44a7.45,7.45,0,0,1-2.45,0H83.49C80,194.28,77.21,191.95,77.09,189Zm85.39,3.66a5.17,5.17,0,0,1-1.9-3.66,5.62,5.62,0,0,1,1.9-4.07,7.42,7.42,0,0,1,9,0,6,6,0,0,1,1.9,4.07,4.8,4.8,0,0,1-1.9,3.66,7.05,7.05,0,0,1-9,0Z"/></svg>