<?xml version="1.0" encoding="utf-8"?>
<!-- Generator: Adobe Illustrator 21.0.0, SVG Export Plug-In . SVG Version: 6.00 Build 0)  -->
<svg version="1.1" id="Layer_1" xmlns="http://www.w3.org/2000/svg" xmlns:xlink="http://www.w3.org/1999/xlink" x="0px" y="0px"
	 viewBox="0 0 352.8 290.5" style="enable-background:new 0 0 352.8 290.5;" xml:space="preserve">
<path d="M83,290.5v-62.2h269.8v62.2H83z M83,166v-41.5h269.8V166H83z M83,62.2V0h269.8v62.2H83z M31.1,228.2
	c17.2,0,31.1,13.9,31.1,31.1s-13.9,31.1-31.1,31.1S0,276.6,0,259.4S13.9,228.2,31.1,228.2z M31.1,103.8c17.2,0,31.1,13.9,31.1,31.1
	S48.3,166,31.1,166S0,152.1,0,134.9S13.9,103.8,31.1,103.8z M31.1,0c17.2,0,31.1,13.9,31.1,31.1S48.3,62.2,31.1,62.2S0,48.3,0,31.1
	S13.9,0,31.1,0z"/>
</svg>
