<svg xmlns="http://www.w3.org/2000/svg" width="512" height="335.45" viewBox="0 0 512 335.45"><title>cs</title><path d="M3.26,333.59,256,168,3.26,2.41A8.68,8.68,0,0,0,0,9.1V326.9A8.68,8.68,0,0,0,3.26,333.59Z" transform="translate(0 -0.28)" fill="#41479b"/><path d="M3.26,333.59a8.68,8.68,0,0,0,5.57,2.13H503.17A8.83,8.83,0,0,0,512,326.9V168H256Z" transform="translate(0 -0.28)" fill="#ff4b55"/><path d="M3.26,2.41A8.68,8.68,0,0,1,8.83.28H503.17A8.83,8.83,0,0,1,512,9.1V168H256Z" transform="translate(0 -0.28)" fill="#f5f5f5"/></svg>