<svg xmlns="http://www.w3.org/2000/svg" width="512" height="335.45" viewBox="0 0 512 335.45"><title>es</title><path d="M8.83,335.73H503.17A8.83,8.83,0,0,0,512,326.9V9.1A8.83,8.83,0,0,0,503.17.28H8.83A8.83,8.83,0,0,0,0,9.1V326.9A8.83,8.83,0,0,0,8.83,335.73Z" transform="translate(0 -0.28)" fill="#c8414b"/><rect y="70.63" width="512" height="194.21" fill="#ffd250"/><path d="M216.28,168l7.49-33.68a5,5,0,0,0-4.85-6h-5.27a5,5,0,0,0-4.85,6Z" transform="translate(0 -0.28)" fill="#c8414b"/><rect x="207.45" y="150.07" width="17.65" height="75.03" fill="#f5f5f5"/><rect x="203.03" y="141.24" width="26.48" height="8.83" fill="#fab446"/><rect x="185.38" y="167.72" width="44.14" height="8.83" fill="#c8414b"/><polygon points="229.52 203.03 203.03 194.21 203.03 185.38 229.52 194.21 229.52 203.03" fill="#c8414b"/><path d="M83.86,168l7.49-33.68a5,5,0,0,0-4.85-6H81.23a5,5,0,0,0-4.85,6Z" transform="translate(0 -0.28)" fill="#c8414b"/><path d="M114.76,141.52a8.83,8.83,0,0,0-8.83,8.83v57.38c0,10.72,10,30.9,44.14,30.9s44.14-20.17,44.14-30.9V150.35a8.83,8.83,0,0,0-8.83-8.83Z" transform="translate(0 -0.28)" fill="#f5f5f5"/><path d="M150.07,185.66H105.93V150.35a8.83,8.83,0,0,1,8.83-8.83h35.31Z" transform="translate(0 -0.28)" fill="#c8414b"/><path d="M150.07,185.66h44.14v22.07a22.07,22.07,0,0,1-22.07,22.07h0a22.07,22.07,0,0,1-22.07-22.07V185.66Z" transform="translate(0 -0.28)" fill="#c8414b"/><path d="M105.93,185.66h44.14v22.07A22.07,22.07,0,0,1,128,229.79h0a22.07,22.07,0,0,1-22.07-22.07V185.66Z" transform="translate(0 -0.28)" fill="#fab446"/><path d="M141.24,225.28V185.66h-8.83v43.69A21.84,21.84,0,0,0,141.24,225.28Z" transform="translate(0 -0.28)" fill="#c8414b"/><path d="M123.59,229.35V185.66h-8.83v39.62A21.85,21.85,0,0,0,123.59,229.35Z" transform="translate(0 -0.28)" fill="#c8414b"/><rect x="114.76" y="167.73" width="26.48" height="8.83" fill="#ffb441"/><rect x="114.76" y="150.06" width="26.48" height="8.83" fill="#fab446"/><rect x="119.17" y="155.32" width="17.66" height="15.99" fill="#fab446"/><rect x="75.03" y="150.07" width="17.65" height="75.03" fill="#f5f5f5"/><rect x="70.62" y="220.7" width="26.48" height="8.83" fill="#fab446"/><rect x="70.62" y="141.25" width="26.48" height="8.83" fill="#fab446"/><rect x="66.21" y="229.52" width="35.31" height="8.83" fill="#5064aa"/><rect x="207.45" y="220.69" width="26.48" height="8.83" fill="#fab446"/><rect x="198.62" y="229.52" width="35.31" height="8.83" fill="#5064aa"/><rect x="123.59" y="132.41" width="52.97" height="8.83" fill="#fab446"/><rect x="145.66" y="105.93" width="8.83" height="26.48" fill="#ffb441"/><path d="M141.24,119.45a13.24,13.24,0,1,1,13.24-13.24A13.26,13.26,0,0,1,141.24,119.45Zm0-17.65a4.41,4.41,0,1,0,4.41,4.41A4.42,4.42,0,0,0,141.24,101.79Z" transform="translate(0 -0.28)" fill="#f5f5f5"/><path d="M158.9,119.45a13.24,13.24,0,1,1,13.24-13.24A13.26,13.26,0,0,1,158.9,119.45Zm0-17.65a4.41,4.41,0,1,0,4.41,4.41A4.42,4.42,0,0,0,158.9,101.79Z" transform="translate(0 -0.28)" fill="#f5f5f5"/><path d="M176.55,128.28A13.24,13.24,0,1,1,189.79,115,13.26,13.26,0,0,1,176.55,128.28Zm0-17.66A4.41,4.41,0,1,0,181,115,4.42,4.42,0,0,0,176.55,110.62Z" transform="translate(0 -0.28)" fill="#f5f5f5"/><path d="M123.59,128.28A13.24,13.24,0,1,1,136.83,115,13.26,13.26,0,0,1,123.59,128.28Zm0-17.66A4.41,4.41,0,1,0,128,115,4.42,4.42,0,0,0,123.59,110.62Z" transform="translate(0 -0.28)" fill="#f5f5f5"/><path d="M176.55,203.31v4.41a4.41,4.41,0,0,1-8.83,0v-4.41Zm8.83-8.83H158.9v13.24a13.24,13.24,0,0,0,26.48,0V194.48Z" transform="translate(0 -0.28)" fill="#fab446"/><path d="M172.14,176.83h0a8.83,8.83,0,0,1-8.83-8.83v-8.83a8.83,8.83,0,0,1,8.83-8.83h0a8.83,8.83,0,0,1,8.83,8.83V168A8.83,8.83,0,0,1,172.14,176.83Z" transform="translate(0 -0.28)" fill="#ffa0d2"/><circle cx="150.07" cy="185.38" r="13.24" fill="#5064aa"/><rect x="145.66" y="88.28" width="8.83" height="26.48" fill="#fab446"/><path d="M123.59,132.69l-8.83-8.83,5.17-5.17a42.63,42.63,0,0,1,30.14-12.48h0a42.63,42.63,0,0,1,30.14,12.48l5.17,5.17-8.83,8.83Z" transform="translate(0 -0.28)" fill="#c8414b"/><circle cx="150.07" cy="123.58" r="4.41" fill="#ffd250"/><circle cx="132.41" cy="123.58" r="4.41" fill="#ffd250"/><circle cx="167.72" cy="123.58" r="4.41" fill="#ffd250"/><rect x="70.62" y="167.73" width="44.14" height="8.83" fill="#c8414b"/><polygon points="70.62 203.03 97.1 194.21 97.1 185.38 70.62 194.21 70.62 203.03" fill="#c8414b"/></svg>