<svg xmlns="http://www.w3.org/2000/svg" width="512" height="335.45" viewBox="0 0 512 335.45"><title>sk</title><path d="M512,112.09H0V9.1A8.83,8.83,0,0,1,8.83.28H503.17A8.83,8.83,0,0,1,512,9.1v103Z" transform="translate(0 -0.28)" fill="#f5f5f5"/><path d="M503.17,335.73H8.83A8.83,8.83,0,0,1,0,326.9v-103H512v103A8.83,8.83,0,0,1,503.17,335.73Z" transform="translate(0 -0.28)" fill="#ff4b55"/><rect y="111.82" width="512" height="111.81" fill="#41479b"/><path d="M130.23,251.29c-2.61-1.5-64-37.22-64-92.11v-75H198.62v75c0,54.9-61.4,90.61-64,92.11l-2.19,1.25Z" transform="translate(0 -0.28)" fill="#ff4b55"/><polygon points="167.09 145.66 146.28 148.4 139.35 148.4 139.35 135.98 143.51 135.98 160.16 138.72 157.9 129.04 160.16 119.37 143.51 122.11 139.35 122.11 139.35 117.91 142.09 97.1 132.41 99.92 122.74 97.1 125.48 117.91 125.48 122.11 121.31 122.11 104.67 119.37 106.92 129.04 104.67 138.72 121.31 135.98 125.48 135.98 125.48 148.4 118.54 148.4 97.73 145.66 100.55 155.33 97.73 165.01 118.54 162.27 125.48 162.27 125.48 194.21 139.35 194.21 139.35 162.27 146.28 162.27 167.09 165.01 164.28 155.33 167.09 145.66" fill="#f5f5f5"/><path d="M132.41,181.24a22.07,22.07,0,0,0-20.3,13.42c-.59,0-1.16-.18-1.77-.18A22,22,0,0,0,88.4,215.27c17.88,22,40.26,35.12,41.82,36l2.19,1.25,2.19-1.25c1.56-.9,23.95-14,41.82-36a22,22,0,0,0-21.94-20.79c-.6,0-1.17.13-1.77.18A22.07,22.07,0,0,0,132.41,181.24Z" transform="translate(0 -0.28)" fill="#41479b"/><path d="M194.21,88.55v70.62c0,53-61.79,88.28-61.79,88.28s-61.79-35.31-61.79-88.28V88.55ZM203,79.72H61.79v79.45c0,57.43,63.54,94.39,66.24,95.94l4.38,2.5,4.38-2.5c2.7-1.55,66.24-38.51,66.24-95.94V79.72Z" transform="translate(0 -0.28)" fill="#f5f5f5"/></svg>