<svg xmlns="http://www.w3.org/2000/svg" width="512" height="335.45" viewBox="0 0 512 335.45"><title>en</title><path d="M503.17,335.73H8.83A8.83,8.83,0,0,1,0,326.9V9.1A8.83,8.83,0,0,1,8.83.28H503.17A8.83,8.83,0,0,1,512,9.1V326.9A8.83,8.83,0,0,1,503.17,335.73Z" transform="translate(0 -0.28)" fill="#41479b"/><path d="M512,9.1A8.83,8.83,0,0,0,503.17.28H463.68L300.14,107.42V.28H211.86V107.42L48.32.28H8.83A8.83,8.83,0,0,0,0,9.1V31.93l140.31,91.93H0v88.28H140.31L0,304.07V326.9a8.83,8.83,0,0,0,8.83,8.83h39.5L211.86,228.58V335.73h88.28V228.58L463.68,335.73h39.5A8.83,8.83,0,0,0,512,326.9V304.07L371.69,212.14H512V123.86H371.69L512,31.93Z" transform="translate(0 -0.28)" fill="#f5f5f5"/><polygon points="512 141.24 282.48 141.24 282.48 0 229.52 0 229.52 141.24 0 141.24 0 194.21 229.52 194.21 229.52 335.45 282.48 335.45 282.48 194.21 512 194.21 512 141.24" fill="#ff4b55"/><path d="M178.95,212.14.25,328.14a8.72,8.72,0,0,0,8.58,7.59H21L211.38,212.14H178.95Z" transform="translate(0 -0.28)" fill="#ff4b55"/><path d="M346.39,212.14H314l190.11,123.4A8.74,8.74,0,0,0,512,326.9v-7.26Z" transform="translate(0 -0.28)" fill="#ff4b55"/><path d="M0,18.85l161.78,105h32.43L5.14,1.14A8.79,8.79,0,0,0,0,9.1Z" transform="translate(0 -0.28)" fill="#ff4b55"/><path d="M332.57,123.86,511.69,7.59A8.71,8.71,0,0,0,503.17.28H490.52L300.14,123.86Z" transform="translate(0 -0.28)" fill="#ff4b55"/></svg>