<svg xmlns="http://www.w3.org/2000/svg" width="512" height="335.45" viewBox="0 0 512 335.45"><title>pt</title><path d="M503.17,335.73H8.83A8.83,8.83,0,0,1,0,326.9V9.1A8.83,8.83,0,0,1,8.83.28H503.17A8.83,8.83,0,0,1,512,9.1V326.9A8.83,8.83,0,0,1,503.17,335.73Z" transform="translate(0 -0.28)" fill="#ff4b55"/><path d="M185.38.28H8.83A8.83,8.83,0,0,0,0,9.1V326.9a8.83,8.83,0,0,0,8.83,8.83H185.38V.28Z" transform="translate(0 -0.28)" fill="#73af00"/><circle cx="185.45" cy="167.73" r="79.38" fill="#ffe15a"/><path d="M211.93,141.52v35.31a26.48,26.48,0,0,1-53,0V141.52Zm8.83-17.66H150.14a8.83,8.83,0,0,0-8.83,8.83v44.14a44.14,44.14,0,0,0,88.28,0V132.69a8.83,8.83,0,0,0-8.83-8.83Z" transform="translate(0 -0.28)" fill="#ff4b55"/><path d="M211.93,141.52v35.31a26.48,26.48,0,0,1-53,0V141.52h53" transform="translate(0 -0.28)" fill="#f5f5f5"/><circle cx="150.07" cy="132.41" r="4.41" fill="#ffe15a"/><circle cx="220.69" cy="132.41" r="4.41" fill="#ffe15a"/><circle cx="150.07" cy="167.72" r="4.41" fill="#ffe15a"/><circle cx="220.69" cy="167.72" r="4.41" fill="#ffe15a"/><circle cx="185.38" cy="132.41" r="4.41" fill="#ffe15a"/><circle cx="211.88" cy="200.28" r="4.41" fill="#ffe15a"/><circle cx="159.4" cy="200.28" r="4.41" fill="#ffe15a"/><path d="M191.15,165.76v7.6a5.7,5.7,0,1,1-11.4,0v-7.6h11.4" transform="translate(0 -0.28)" fill="#41479b"/><path d="M191.15,147.74v7.6a5.7,5.7,0,0,1-11.4,0v-7.6h11.4" transform="translate(0 -0.28)" fill="#41479b"/><path d="M191.15,184v7.6a5.7,5.7,0,0,1-11.4,0V184h11.4" transform="translate(0 -0.28)" fill="#41479b"/><path d="M206.51,165.76v7.6a5.7,5.7,0,1,1-11.4,0v-7.6h11.4" transform="translate(0 -0.28)" fill="#41479b"/><path d="M175.79,165.76v7.6a5.7,5.7,0,1,1-11.4,0v-7.6h11.4" transform="translate(0 -0.28)" fill="#41479b"/></svg>